<?xml version="1.0" encoding="UTF-8" standalone="no"?> <svg xmlns="http://www.w3.org/2000/svg" viewBox="0 0 512 512"><title>Close</title><g id="Close"><g id="Close-2" data-name="Close"><path d="M256.0026,236.7135a26.5456,26.5456,0,0,0,26.5465-26.5465V131.0132a26.5465,26.5465,0,1,0-53.093,0V210.167A26.5456,26.5456,0,0,0,256.0026,236.7135Z"/><path d="M304.35,145.3721V194.33a91.6008,91.6008,0,1,1-96.6966,0V145.3721a135.7533,135.7533,0,0,0-87.2071,126.6105c0,74.7423,60.8084,135.5508,135.556,135.5508,74.7424,0,135.5508-60.8085,135.5508-135.5508A135.7651,135.7651,0,0,0,304.35,145.3721Z"/></g></g></svg>